<?xml version="1.0" encoding="utf-8"?>
<!-- Generator: Adobe Illustrator 21.0.2, SVG Export Plug-In . SVG Version: 6.00 Build 0)  -->
<svg version="1.1" id="Layer_1" xmlns="http://www.w3.org/2000/svg" xmlns:xlink="http://www.w3.org/1999/xlink" x="0px" y="0px"
	 viewBox="0 0 100 100" style="enable-background:new 0 0 100 100;" xml:space="preserve">
<style type="text/css">
	.st0{fill:#595959;}
</style>
<path class="st0" d="M83.8,75.4c-2-12.3-12.2-21.7-24-25.1c5-5.6,7.7-14.7,7.7-20.8c0-9.5-7.8-19.3-17.7-19.3S32.1,20,32.1,29.4
	c0,6.2,2.7,15.3,7.8,20.9c-11.6,3.5-21.8,12.8-23.7,25c-0.8,5.1,5.1,8.4,9,10.2c7.5,3.4,16.1,4.5,24.3,4.6c8.3,0.1,16.9-1,24.6-4.2
	C78.1,84.2,84.7,80.8,83.8,75.4z"/>
</svg>
