<svg id="iphone" xmlns="http://www.w3.org/2000/svg" viewBox="0 0 205.99 427.1"><defs><style>.cls-1{fill:#e95354;}.cls-2{fill:#f0ede6;}</style></defs><title>iphone 7</title><path class="cls-1" d="M224.62,86.45H75.38A28.46,28.46,0,0,0,47,114.83V485.17a28.46,28.46,0,0,0,28.38,28.38H224.62A28.46,28.46,0,0,0,253,485.17V114.83A28.46,28.46,0,0,0,224.62,86.45ZM150,502.12a15.05,15.05,0,1,1,15.05-15.05A15.05,15.05,0,0,1,150,502.12ZM243.26,166.2V462.7H56.74V137.58H243.26Z" transform="translate(-47 -86.45)"/><path class="cls-2" d="M166.38,115.36H133.62a1.4,1.4,0,0,1-1.4-1.4h0a1.4,1.4,0,0,1,1.4-1.4h32.75a1.4,1.4,0,0,1,1.4,1.4h0A1.4,1.4,0,0,1,166.38,115.36Z" transform="translate(-47 -86.45)"/><circle class="cls-2" cx="103" cy="13.68" r="1.95"/><circle class="cls-2" cx="70.57" cy="27.51" r="3.59"/></svg>