<?xml version="1.0" encoding="utf-8"?>
<!-- Generator: Adobe Illustrator 21.0.2, SVG Export Plug-In . SVG Version: 6.00 Build 0)  -->
<svg version="1.1" id="Layer_1" xmlns="http://www.w3.org/2000/svg" xmlns:xlink="http://www.w3.org/1999/xlink" x="0px" y="0px"
	 viewBox="0 0 400 400" style="enable-background:new 0 0 400 400;" xml:space="preserve">
<style type="text/css">
	.st0{fill:#D6B999;}
	.st1{fill:#F9D9B0;}
	.st2{fill:#FFFFFF;}
	.st3{fill:#603813;}
	.st4{fill:#E87B69;}
	.st5{fill:#DFB491;}
	.st6{fill:#DFB490;}
</style>
<polyline class="st0" points="132.1,216.3 296.1,338.3 255.4,353.6 244.9,360.1 227.4,396 142.6,352.3 137.6,323.1 135.6,311.2 
	132.5,288.7 130.3,272.7 107.3,214.7 "/>
<polygon class="st1" points="132.1,131 132.1,208.8 162.7,270.1 196.8,313.8 233.5,338.3 311.4,336.5 321.9,305 321.9,219.3 
	321.9,187 293,111.8 282.5,94.3 212.5,94.3 "/>
<polygon class="st1" points="129.6,134.3 129.6,212.1 149.9,281.1 172.6,323.7 230.3,342.9 311.4,341.6 322.3,308.3 322.3,222.6 
	322.3,190.3 293,115.1 282.3,97.6 211.3,97.6 "/>
<polygon class="st2" points="182.8,198.4 184.6,217.6 191.6,224.6 213.4,224.6 227.4,215 227.4,201 223.6,191.6 "/>
<path class="st2" d="M280.8,172.6l3.1-1.7l22.3-5.7l5.2,6.3v4.6l-3.1,15.6c0,0-6.1,5-7.9,4.1c-1.7-0.9-10.9,0.1-10.9,0.1l-8.7-8.4
	v-10.5"/>
<polygon points="198.1,205.5 198.1,213.1 201,216.3 208,216.3 212.1,213.4 212.1,208.4 210.5,203.9 207.3,202 199.3,202 "/>
<polygon points="301.6,177.6 301.6,183.6 299.3,186.2 293.8,186.2 290.5,183.8 290.5,179.9 291.8,176.2 296.1,174.8 300.7,174.8 "/>
<polygon class="st3" points="167.6,180 187.1,177.3 202.6,177.4 220.8,178 223,178.1 223.4,181.1 187.7,181.6 173.4,183.6 "/>
<polygon class="st3" points="305.6,149.9 293.6,152.4 284.3,155.5 273.5,159.5 272.3,159.9 272.5,161.6 293.9,154.8 302.8,153 "/>
<polygon class="st4" points="238.3,291.9 259.8,297.6 297.4,297.6 297.4,301.1 262.4,304.2 "/>
<polyline class="st5" points="258.9,169.9 259.7,171.1 321.4,257.4 280.8,269.2 "/>
<polygon class="st3" points="119.8,40.6 61.3,90.5 61.3,175.3 73.8,237.4 85.2,240 90.1,206.2 107.6,202.7 123.9,201.6 131.5,212.9 
	139.4,217.3 148.1,212.9 130.9,175.9 152.2,134.5 147.4,124 167.9,141.5 157.5,118.8 195.3,110.1 275.8,122.6 285.8,114 274.4,97.8 
	293,111.8 301.2,108.3 312.8,90.8 288.4,50 190.4,37.2 200.9,15 177.6,36 165.9,8 167.1,37.2 "/>
<polygon class="st1" points="125.2,191.6 94,195.8 84.4,216.3 85.2,240 112.1,262.8 132.5,267.4 145.2,261 145.2,240 "/>
<polygon class="st6" points="94.2,215 107.2,227.2 108.6,243.6 114.7,252.8 128.5,253.7 129.1,244.6 112.2,221.5 102.5,215.5 "/>
</svg>
